<?xml version="1.0" encoding="utf-8"?>
<!-- Generator: Adobe Illustrator 19.2.1, SVG Export Plug-In . SVG Version: 6.00 Build 0)  -->
<svg version="1.1" id="layer" xmlns="http://www.w3.org/2000/svg" xmlns:xlink="http://www.w3.org/1999/xlink" x="0px" y="0px"
	 viewBox="0 0 652 652" style="enable-background:new 0 0 652 652;" xml:space="preserve">
<style type="text/css">
	.st0{fill:#6C8385;}
</style>
<path class="st0" d="M613.6,342.9h12.4l-47.9-45.3l45.3-45.3h-11.9l-46.3,45.3L613.6,342.9z M433.1,342.9h8.6v-90.7h-8.6V342.9z
	 M433.1,342.9h8.6v-90.7h-8.6V342.9z M433.1,342.9h8.6v-90.7h-8.6V342.9z M117.4,342.9l26.6-90.7h-8.9l-23,80.3L90.8,260h-11
	L58,332.6l-23-80.3h-8.9l26.6,90.7h10.6l22-73l21.6,73H117.4z M560.5,342.9h-8.6v-90.7h8.6V342.9z M157.5,311.2l21.6-49.7l21.6,49.7
	H157.5z M183.2,252.3H175l-40.5,90.7h9l10.5-24.1h50.1l10.5,24.1h9L183.2,252.3z M157.5,311.2l21.6-49.7l21.6,49.7H157.5z
	 M183.2,252.3H175l-40.5,90.7h9l10.5-24.1h50.1l10.5,24.1h9L183.2,252.3z M381.4,342.9l-21.6-73l-22,73h-10.6l-26.6-90.7h8.9
	l23,80.3l21.3-72.6h11.8l21,72.6l23-80.3h8.9L392,342.9H381.4z M505,337.6c9.3,0,20.8-4.4,27.4-14.1l7.1,5.3
	c-8.8,11.8-20.8,16.5-34.5,16.5c-28.3,0-48-20-48-47.6c0-27.7,19.7-47.8,48-47.8c13.6,0,25.7,4.7,34.5,16.5l-7.1,5.3
	c-6.5-9.7-18.1-14.1-27.4-14.1c-24.2,0-39.3,17.6-39.3,40.2c0,0,0,0,0,0h0C465.6,320.1,480.7,337.6,505,337.6 M295.1,342.9h-9.8
	l-24.9-41.4h-8.7v-7.7h9.9c18.1-0.1,21.6-10.7,21.6-16.9c0-6.3-3.4-16.9-21.6-16.9H243v83h-8.6v-90.7h26c7.3,0,31.4,0.8,31.4,24.6
	c0,16.7-12.7,22.1-22.8,23.8L295.1,342.9z M38.8,374.6h9.7V372H26.1v2.6h9.7V401h3V374.6z M53.9,401h3v-13.8h15.9V401h3V372h-3v12.6
	H56.8V372h-3V401z M86.1,387.2h14.1v-2.6H86.1v-10h15.1V372h-18V401h18.5v-2.6H86.1V387.2z M134.7,400.7c1.4-0.8,2.5-1.7,3.4-2.9
	c0.8-1.1,1.4-2.4,1.7-3.7c0.3-1.4,0.5-2.6,0.5-3.9V372h-3v17.9c0,1.2-0.1,2.3-0.4,3.4c-0.3,1.1-0.7,2.1-1.3,3
	c-0.6,0.9-1.4,1.6-2.4,2.1c-1,0.5-2.3,0.8-3.7,0.8c-1.5,0-2.7-0.3-3.7-0.8c-1-0.5-1.8-1.2-2.5-2.1c-0.6-0.8-1.1-1.8-1.3-3
	c-0.3-1.1-0.4-2.3-0.4-3.4V372h-3v18.2c0,1.2,0.2,2.5,0.5,3.9c0.3,1.4,0.9,2.6,1.7,3.7c0.8,1.2,1.9,2.1,3.3,2.9
	c1.4,0.8,3.2,1.1,5.4,1.1C131.5,401.8,133.3,401.4,134.7,400.7 M150.7,372H147V401h3v-25h0.1l16.9,25h3.7V372h-3v24.8h-0.1
	L150.7,372z M180.5,372h-3V401h3V372z M188.7,372h-3.2l11.1,29.1h3.1l11.1-29.1h-3.2l-9.4,25.3h-0.1L188.7,372z M218.2,387.2h14.1
	v-2.6h-14.1v-10h15.1V372h-18V401h18.5v-2.6h-15.6V387.2z M243,387.5h4.9l8.1,13.6h3.6l-8.5-13.8c1.1-0.1,2-0.3,3-0.7
	c0.9-0.4,1.7-0.9,2.3-1.5c0.7-0.7,1.2-1.4,1.6-2.3c0.4-0.9,0.6-1.9,0.6-2.9c0-1.4-0.2-2.6-0.7-3.6c-0.5-1-1.2-1.8-2.1-2.4
	c-0.9-0.6-2-1.1-3.2-1.3c-1.2-0.3-2.5-0.4-4-0.4H240V401h3V387.5z M243,374.5h5.3c1.1,0,2.1,0.1,3,0.3c0.9,0.2,1.7,0.5,2.3,0.9
	c0.6,0.4,1.1,0.9,1.5,1.6c0.4,0.7,0.5,1.5,0.5,2.4c0,1.7-0.6,3-1.9,3.9c-1.3,0.9-3.1,1.3-5.5,1.3H243V374.5z M281.5,374.8
	c-0.7-1-1.8-1.8-3.2-2.5c-1.4-0.7-3.1-1-5.1-1c-1.1,0-2.2,0.1-3.2,0.4c-1.1,0.3-2.1,0.8-3,1.4c-0.9,0.7-1.6,1.5-2.2,2.5
	c-0.6,1-0.8,2.2-0.8,3.6c0,1.3,0.2,2.4,0.7,3.3c0.4,0.9,1,1.7,1.8,2.3c0.7,0.6,1.6,1.1,2.5,1.5c0.9,0.4,1.9,0.7,2.8,1
	c0.9,0.3,1.8,0.6,2.7,0.9c0.9,0.3,1.6,0.7,2.3,1.1c0.7,0.5,1.2,1,1.6,1.7c0.4,0.7,0.6,1.5,0.6,2.5c0,0.9-0.2,1.8-0.6,2.4
	c-0.4,0.7-0.9,1.3-1.5,1.8c-0.6,0.5-1.3,0.8-2.1,1.1c-0.8,0.2-1.5,0.4-2.3,0.4c-1.5,0-2.9-0.4-4-1.1c-1.1-0.7-2-1.6-2.6-2.6
	l-2.6,1.9c0.5,0.7,1.1,1.3,1.8,1.9c0.7,0.5,1.4,1,2.2,1.3c0.8,0.4,1.6,0.6,2.5,0.8c0.9,0.2,1.8,0.3,2.6,0.3c1.2,0,2.3-0.2,3.4-0.5
	c1.1-0.3,2.2-0.8,3-1.5c0.9-0.7,1.6-1.6,2.1-2.6c0.6-1.1,0.8-2.3,0.8-3.8c0-1.5-0.3-2.6-0.8-3.6c-0.5-1-1.2-1.7-2-2.4
	c-0.8-0.6-1.7-1.1-2.8-1.5c-1-0.4-2-0.7-3-1.1c-0.8-0.3-1.6-0.5-2.4-0.8c-0.8-0.3-1.4-0.6-2-1c-0.6-0.4-1.1-1-1.4-1.6
	c-0.4-0.6-0.5-1.4-0.5-2.3s0.2-1.7,0.6-2.4c0.4-0.7,0.9-1.2,1.5-1.7c0.6-0.4,1.3-0.8,2-1c0.8-0.2,1.5-0.3,2.2-0.3
	c1.4,0,2.6,0.3,3.6,0.8c1,0.5,1.8,1.2,2.4,2.1L281.5,374.8z M291,372h-3V401h3V372z M307.8,374.6h9.7V372h-22.4v2.6h9.7V401h3V374.6
	z M334.8,388.5l10.9-16.6h-3.5l-8.8,14.1l-8.8-14.1H321l10.9,16.6V401h3V388.5z M387.3,380.4c-0.8-1.9-1.8-3.5-3.2-4.8
	c-1.4-1.3-3-2.4-4.8-3.2c-1.8-0.8-3.9-1.1-6-1.1c-2.2,0-4.2,0.4-6,1.1c-1.8,0.8-3.5,1.8-4.8,3.2c-1.4,1.3-2.4,3-3.2,4.8
	c-0.8,1.9-1.1,3.9-1.1,6.1c0,2.2,0.4,4.3,1.1,6.1s1.8,3.5,3.2,4.8c1.3,1.3,3,2.4,4.8,3.2c1.8,0.8,3.9,1.2,6,1.2c2.2,0,4.2-0.4,6-1.2
	c1.9-0.8,3.4-1.8,4.8-3.2c1.3-1.4,2.4-3,3.2-4.8c0.8-1.9,1.1-3.9,1.1-6.1C388.4,384.3,388.1,382.2,387.3,380.4 M384.5,391.4
	c-0.5,1.5-1.3,2.9-2.4,4c-1,1.1-2.3,2.1-3.8,2.7c-1.5,0.7-3.2,1-5,1c-1.9,0-3.5-0.3-5-1c-1.5-0.7-2.8-1.6-3.8-2.7
	c-1-1.2-1.8-2.5-2.4-4c-0.5-1.5-0.8-3.1-0.8-4.8c0-1.7,0.3-3.3,0.8-4.8c0.6-1.5,1.4-2.9,2.4-4c1.1-1.2,2.3-2.1,3.8-2.8
	c1.5-0.7,3.2-1,5-1c1.9,0,3.5,0.3,5,1c1.5,0.7,2.8,1.6,3.8,2.8c1,1.2,1.8,2.5,2.4,4c0.6,1.5,0.8,3.2,0.8,4.8
	C385.3,388.2,385,389.8,384.5,391.4 M398,387.3h13.6v-2.6H398v-10.1h14.6V372H395V401h3V387.3z M428.5,372h-3.1L434,401h3.4l7.3-25
	h0.1l7.3,25h3.5l8.6-29.1h-3.1l-7.1,25h-0.1l-7.3-25h-3.5l-7.3,25h-0.1L428.5,372z M469.1,393.4h15l3.2,7.6h3.3L478.1,372h-2.9
	L462.7,401h3.2L469.1,393.4z M476.6,375.3l6.4,15.5h-12.8L476.6,375.3z M498.3,387.5h4.9l8.1,13.6h3.6l-8.5-13.8
	c1.1-0.1,2.1-0.3,3-0.7c0.9-0.4,1.7-0.9,2.4-1.5c0.6-0.7,1.2-1.4,1.6-2.3c0.4-0.9,0.6-1.9,0.6-2.9c0-1.4-0.2-2.6-0.7-3.6
	c-0.5-1-1.2-1.8-2.1-2.4c-0.9-0.6-2-1.1-3.2-1.3c-1.2-0.3-2.5-0.4-4-0.4h-8.5V401h3V387.5z M498.3,374.5h5.3c1.1,0,2.1,0.1,3,0.3
	c0.9,0.2,1.7,0.5,2.3,0.9c0.6,0.4,1.1,0.9,1.5,1.6c0.4,0.7,0.5,1.5,0.5,2.4c0,1.7-0.6,3-1.9,3.9c-1.3,0.9-3.1,1.3-5.5,1.3h-5.1
	V374.5z M521.4,372h-3.1l8.6,29.1h3.5l7.3-25h0.1l7.3,25h3.5L557,372h-3.1l-7.1,25h-0.1l-7.3-25h-3.5l-7.3,25h-0.1L521.4,372z
	 M565.4,372h-2.9V401h2.9V372z M595.8,394.8c-1,1.5-2.3,2.6-3.8,3.3c-1.5,0.7-3.1,1-4.8,1c-1.9,0-3.5-0.3-5-1
	c-1.5-0.7-2.8-1.6-3.8-2.8c-1.1-1.2-1.8-2.5-2.4-4c-0.6-1.5-0.8-3.1-0.8-4.8c0-1.7,0.3-3.3,0.8-4.8c0.5-1.5,1.3-2.9,2.4-4
	c1-1.2,2.3-2.1,3.8-2.8c1.5-0.7,3.2-1,5.1-1c0.9,0,1.8,0.1,2.6,0.3c0.8,0.2,1.6,0.5,2.2,0.9c0.7,0.4,1.3,0.8,1.8,1.2
	c0.5,0.5,0.9,0.9,1.2,1.4l2.5-1.8c-0.5-0.7-1.1-1.4-1.9-1.9c-0.7-0.6-1.6-1-2.5-1.5c-0.9-0.4-1.9-0.7-2.9-1c-1-0.2-2.1-0.3-3.1-0.3
	c-2.2,0-4.2,0.4-6,1.1c-1.9,0.8-3.5,1.8-4.8,3.2c-1.4,1.3-2.4,3-3.2,4.8c-0.8,1.9-1.1,3.9-1.1,6.1c0,2.2,0.4,4.3,1.1,6.1
	c0.7,1.9,1.8,3.5,3.1,4.8c1.3,1.3,2.9,2.4,4.8,3.2c1.9,0.8,3.9,1.2,6.1,1.2c1.3,0,2.5-0.2,3.6-0.4c1.1-0.3,2.1-0.7,3-1.2
	c0.9-0.5,1.7-1.1,2.4-1.7c0.7-0.7,1.3-1.4,1.8-2.1L595.8,394.8z M607.1,372h-3V401h3v-15.5h0l14.5,15.5h4.4l-15.5-15.9l14.7-13.2
	H621L607.2,385h0V372z"/>
</svg>
